<svg xmlns="http://www.w3.org/2000/svg" width="174.06" height="174.06" viewBox="0 0 174.06 174.06"><defs><style>.a{fill:#c7cacf;}</style></defs><path class="a" d="M4.217,50.315,83.407,86.238a8.705,8.705,0,0,0,7.238,0l79.189-35.923c5.626-2.553,5.626-11.055,0-13.608L90.648.78a8.705,8.705,0,0,0-7.238,0L4.217,36.7C-1.409,39.257-1.409,47.762,4.217,50.315Zm165.62,30.011-19.748-8.951L95.138,96.284a19.6,19.6,0,0,1-16.223,0L23.969,71.376,4.217,80.327c-5.626,2.55-5.626,11.049,0,13.6l79.189,35.9a8.731,8.731,0,0,0,7.238,0l79.193-35.9c5.626-2.55,5.626-11.049,0-13.6Zm0,43.446-19.673-8.917L95.138,139.8a19.6,19.6,0,0,1-16.223,0L23.894,114.856,4.217,123.773c-5.626,2.55-5.626,11.049,0,13.6l79.189,35.9a8.731,8.731,0,0,0,7.238,0l79.193-35.9C175.463,134.822,175.463,126.323,169.837,123.773Z" transform="translate(0.003 0.007)"/></svg>