<svg xmlns="http://www.w3.org/2000/svg" width="239" height="131.113" viewBox="0 0 239 131.113"><defs><style>.a,.b,.d{fill:#1c68ae;}.a{fill-rule:evenodd;}.b{font-size:28px;font-family:Montserrat-Black, Montserrat;font-weight:800;}.c{fill:#000;}</style></defs><g transform="translate(-18 -40)"><g transform="translate(18 40)"><g transform="translate(71.528)"><path class="a" d="M1.156,0H66.309a.86.86,0,0,1,.513.169l26.5,19.37a.849.849,0,0,1-.513,1.531H24a.853.853,0,0,0-.856.85V46.738a.853.853,0,0,0,.856.85H67.851a.853.853,0,0,1,.855.85V66.533a.853.853,0,0,1-.855.85h-67A.853.853,0,0,1,0,66.529L.3.846A.852.852,0,0,1,1.156,0" transform="translate(0)"/><path class="a" d="M32.1,158.756a.853.853,0,0,1-.511-.17L6.707,140.23a.852.852,0,0,1,.511-1.535H77a.853.853,0,0,0,.853-.853V110.814a.853.853,0,0,0-.853-.853H33.847a.853.853,0,0,1-.853-.853V93.1a.853.853,0,0,1,.853-.853h66.2a.853.853,0,0,1,.853.857l-.3,64.8a.853.853,0,0,1-.853.849Z" transform="translate(-4.613 -66.869)"/></g><text class="b" transform="translate(0 124.113)"><tspan class="c" x="0" y="0">STRONG </tspan><tspan class="d" y="0">BLOCK</tspan></text></g></g></svg>