<svg xmlns="http://www.w3.org/2000/svg" width="35.899" height="34.369" viewBox="0 0 35.899 34.369"><defs><style>.a{fill:#c7cacf;fill-rule:evenodd;}</style></defs><path class="a" d="M.43,0H24.659a.318.318,0,0,1,.191.063L34.7,7.307a.318.318,0,0,1-.191.572H8.924a.318.318,0,0,0-.318.318v9.281a.318.318,0,0,0,.318.318H25.232a.318.318,0,0,1,.318.318v6.767a.318.318,0,0,1-.318.318H.318A.318.318,0,0,1,0,24.88L.112.316A.318.318,0,0,1,.43,0" transform="translate(0)"/><path class="a" d="M50.686,251.132H25.477a.318.318,0,0,1-.19-.063l-9.27-6.845a.318.318,0,0,1,.19-.572h26a.318.318,0,0,0,.318-.318V233.255a.318.318,0,0,0-.318-.318H26.129a.318.318,0,0,1-.318-.318v-5.97a.318.318,0,0,1,.318-.318H50.8a.318.318,0,0,1,.318.319L51,250.816a.318.318,0,0,1-.318.317" transform="translate(-15.216 -216.764)"/></svg>